<mxfile host="app.diagrams.net" agent="Mozilla/5.0 (Windows NT 10.0; Win64; x64) AppleWebKit/537.36 (KHTML, like Gecko) Chrome/129.0.0.0 Safari/537.36" version="24.7.16">
  <diagram name="Page-1" id="KvvNObu6-2xk3CnrRGry">
    <mxGraphModel>
      <root>
        <mxCell id="0" />
        <mxCell id="1" parent="0" />
        <mxCell id="2" value="Client" style="whiteSpace=wrap;strokeWidth=2;" vertex="1" parent="1">
          <mxGeometry x="26" y="8" width="103" height="48" as="geometry" />
        </mxCell>
        <mxCell id="3" value="Micro Service" style="rounded=1;arcSize=40;strokeWidth=2" vertex="1" parent="1">
          <mxGeometry x="15" y="129" width="126" height="48" as="geometry" />
        </mxCell>
        <mxCell id="4" value="Database" style="rhombus;strokeWidth=2;whiteSpace=wrap;" vertex="1" parent="1">
          <mxGeometry x="21" y="250" width="114" height="114" as="geometry" />
        </mxCell>
        <mxCell id="5" value="Request" style="curved=1;startArrow=none;endArrow=block;exitX=0.5;exitY=1.01;entryX=0.5;entryY=0;" edge="1" parent="1" source="2" target="3">
          <mxGeometry relative="1" as="geometry">
            <Array as="points" />
          </mxGeometry>
        </mxCell>
        <mxCell id="6" value="Process" style="curved=1;startArrow=none;endArrow=block;exitX=0.37;exitY=1;entryX=0.28;entryY=0;" edge="1" parent="1" source="3" target="4">
          <mxGeometry relative="1" as="geometry">
            <Array as="points">
              <mxPoint x="36" y="213" />
            </Array>
          </mxGeometry>
        </mxCell>
        <mxCell id="7" value="Response" style="curved=1;startArrow=none;endArrow=block;exitX=0.72;exitY=0;entryX=0.63;entryY=1;" edge="1" parent="1" source="4" target="3">
          <mxGeometry relative="1" as="geometry">
            <Array as="points">
              <mxPoint x="119" y="213" />
            </Array>
          </mxGeometry>
        </mxCell>
      </root>
    </mxGraphModel>
  </diagram>
</mxfile>
